<?xml version="1.0" encoding="UTF-8" standalone="no"?>
<svg width="23px" height="20px" viewBox="0 0 23 20" version="1.1" xmlns="http://www.w3.org/2000/svg" xmlns:xlink="http://www.w3.org/1999/xlink" xmlns:sketch="http://www.bohemiancoding.com/sketch/ns">
    <!-- Generator: Sketch 3.3.2 (12043) - http://www.bohemiancoding.com/sketch -->
    <title>chat</title>
    <desc>Created with Sketch.</desc>
    <defs></defs>
    <g id="Page-1" stroke="none" stroke-width="1" fill="none" fill-rule="evenodd" sketch:type="MSPage">
        <g id="DienstplanMitarbeiterWoche" sketch:type="MSArtboardGroup" transform="translate(-1311.000000, -19.000000)">
            <g id="NavBar" sketch:type="MSLayerGroup" transform="translate(0.000000, -1.000000)">
                <g id="chat" transform="translate(1303.000000, 10.000000)" sketch:type="MSShapeGroup">
                    <g id="noun_43534_cc" transform="translate(8.000000, 10.000000)" stroke-width="0.1" stroke="#C4C5BE" fill="#C4C5BE">
                        <g id="Group">
                            <path d="M0.298026316,8.876545 C0.298026316,11.4074988 1.68818017,13.7369455 4.14240614,15.3707786 C3.12396734,17.1545919 2.7018519,17.3683785 2.66981792,17.3843273 C2.28782781,17.5717258 2.08474447,18.0032639 2.18175303,18.4228403 C2.27785497,18.8393497 2.64382808,19.1328692 3.06450073,19.1328692 C6.87593995,19.0844093 8.06173339,18.5436721 9.70181273,17.3824759 C10.3255687,17.4622199 10.9605064,17.5027054 11.5930264,17.5027054 C17.8209157,17.5027054 22.8880265,13.6329715 22.8880265,8.876545 C22.8880265,4.1201185 17.8212179,0.250384615 11.5930264,0.250384615 C5.36513712,0.250384615 0.298026316,4.1201185 0.298026316,8.876545 Z M9.60268872,15.5106374 C9.36334049,15.4738325 9.11885474,15.5354808 8.92483761,15.6823939 C7.99494557,16.3853684 6.61083586,17.182809 4.72929283,17.6471648 C5.28928307,17.0205605 5.81240401,16.2550176 6.15994248,15.3496158 C6.32464549,14.9208381 6.15208508,14.4343993 5.75528682,14.2111159 C3.43947182,12.905767 2.11096827,10.9615455 2.11096827,8.876545 C2.11096827,5.13470832 6.36453686,2.09063216 11.5927242,2.09063216 C16.8209115,2.09063216 21.0744801,5.13470832 21.0744801,8.876545 C21.0744801,12.6183817 16.8212137,15.6624578 11.5930264,15.6624578 C10.9251481,15.6624578 10.2554566,15.6112376 9.60268872,15.5106374 Z" id="Shape"></path>
                        </g>
                    </g>
                    <rect id="Rectangle-746" x="0" y="0" width="40" height="40"></rect>
                </g>
            </g>
        </g>
    </g>
</svg>