<?xml version="1.0" encoding="UTF-8" standalone="no"?>
<svg width="15px" height="17px" viewBox="0 0 15 17" version="1.1" xmlns="http://www.w3.org/2000/svg" xmlns:xlink="http://www.w3.org/1999/xlink" xmlns:sketch="http://www.bohemiancoding.com/sketch/ns">
    <!-- Generator: Sketch 3.3.2 (12043) - http://www.bohemiancoding.com/sketch -->
    <title>dienstplan</title>
    <desc>Created with Sketch.</desc>
    <defs></defs>
    <g id="Page-1" stroke="none" stroke-width="1" fill="none" fill-rule="evenodd" sketch:type="MSPage">
        <g id="DienstplanMitarbeiterWoche" sketch:type="MSArtboardGroup" transform="translate(-31.000000, -145.000000)">
            <g id="leftmenuFahrplan" sketch:type="MSLayerGroup">
                <g id="dienstplan" transform="translate(26.000000, 141.000000)" sketch:type="MSShapeGroup">
                    <g id="noun_21227_cc-(2)" transform="translate(5.000000, 4.166667)" fill="#FFFFFF">
                        <g id="Group">
                            <path d="M14.0377491,2.19606164 L11.9866905,2.19606164 L11.9866905,0.854374222 C11.9866905,0.483110212 11.6854763,0.181662516 11.3139788,0.181662516 C10.9424813,0.181662516 10.6412671,0.482876712 10.6412671,0.854374222 L10.6412671,2.19606164 L4.1635274,2.19606164 L4.1635274,0.854374222 C4.1635274,0.483110212 3.8623132,0.181662516 3.49081569,0.181662516 C3.11931818,0.181662516 2.81810399,0.482876712 2.81810399,0.854374222 L2.81810399,2.19606164 L0.767045455,2.19606164 C0.395781445,2.19606164 0.0943337484,2.49727584 0.0943337484,2.86877335 L0.0943337484,16.139477 C0.0943337484,16.510741 0.395547945,16.8121887 0.767045455,16.8121887 L14.0377491,16.8121887 C14.4092466,16.8119552 14.7104608,16.510741 14.7104608,16.1392435 L14.7104608,2.86877335 C14.7104608,2.49750934 14.4092466,2.19606164 14.0377491,2.19606164 L14.0377491,2.19606164 Z M13.3652709,15.4667653 L1.43975716,15.4667653 L1.43975716,3.54125156 L2.81833748,3.54125156 L2.81833748,4.40356476 C2.81833748,4.77482877 3.11955168,5.07627646 3.49104919,5.07627646 C3.8625467,5.07627646 4.1637609,4.77506227 4.1637609,4.40356476 L4.1637609,3.54125156 L10.6417341,3.54125156 L10.6417341,4.40356476 C10.6417341,4.77482877 10.9429483,5.07627646 11.3144458,5.07627646 C11.6859433,5.07627646 11.9871575,4.77506227 11.9871575,4.40356476 L11.9871575,3.54125156 L13.3657379,3.54125156 L13.3657379,15.4667653 L13.3652709,15.4667653 Z" id="Shape"></path>
                            <ellipse id="Oval" cx="3.49104919" cy="8.04241905" rx="0.619006849" ry="0.619006849"></ellipse>
                            <ellipse id="Oval" cx="6.09853674" cy="8.04241905" rx="0.619006849" ry="0.619006849"></ellipse>
                            <ellipse id="Oval" cx="8.70649128" cy="8.04241905" rx="0.619006849" ry="0.619006849"></ellipse>
                            <ellipse id="Oval" cx="11.3142123" cy="8.04241905" rx="0.619006849" ry="0.619006849"></ellipse>
                            <ellipse id="Oval" cx="3.49104919" cy="10.3155355" rx="0.619006849" ry="0.619006849"></ellipse>
                            <ellipse id="Oval" cx="6.09853674" cy="10.3155355" rx="0.619006849" ry="0.619006849"></ellipse>
                            <ellipse id="Oval" cx="8.70649128" cy="10.3155355" rx="0.619006849" ry="0.619006849"></ellipse>
                            <ellipse id="Oval" cx="11.3142123" cy="10.3155355" rx="0.619006849" ry="0.619006849"></ellipse>
                            <ellipse id="Oval" cx="3.49104919" cy="12.5886519" rx="0.619006849" ry="0.619006849"></ellipse>
                            <ellipse id="Oval" cx="6.09853674" cy="12.5886519" rx="0.619006849" ry="0.619006849"></ellipse>
                            <ellipse id="Oval" cx="8.70649128" cy="12.5886519" rx="0.619006849" ry="0.619006849"></ellipse>
                            <ellipse id="Oval" cx="11.3142123" cy="12.5886519" rx="0.619006849" ry="0.619006849"></ellipse>
                        </g>
                    </g>
                    <rect id="Rectangle-732" x="0" y="0" width="25" height="25"></rect>
                </g>
            </g>
        </g>
    </g>
</svg>