<?xml version="1.0" encoding="UTF-8" standalone="no"?>
<svg width="13px" height="13px" viewBox="0 0 13 13" version="1.1" xmlns="http://www.w3.org/2000/svg" xmlns:xlink="http://www.w3.org/1999/xlink" xmlns:sketch="http://www.bohemiancoding.com/sketch/ns">
    <!-- Generator: Sketch 3.3.2 (12043) - http://www.bohemiancoding.com/sketch -->
    <title>driver</title>
    <desc>Created with Sketch.</desc>
    <defs></defs>
    <g id="Page-1" stroke="none" stroke-width="1" fill="none" fill-rule="evenodd" sketch:type="MSPage">
        <g id="Desktop-HD-Copy-15" sketch:type="MSArtboardGroup" transform="translate(-1119.000000, -432.000000)">
            <g id="driver" sketch:type="MSLayerGroup" transform="translate(1115.000000, 428.000000)">
                <rect id="Rectangle-762" sketch:type="MSShapeGroup" x="0" y="0" width="20" height="20"></rect>
                <path d="M10.375,4 C6.86,4 4,6.86 4,10.375 C4,13.89 6.86,16.75 10.375,16.75 C13.891,16.75 16.75,13.89 16.75,10.375 C16.75,6.86 13.891,4 10.375,4 L10.375,4 Z M7.812,10.785 C7.812,11.43 8.161,12.047 8.728,12.397 C8.728,12.397 8.846,12.464 8.881,12.481 C9.139,12.631 9.446,12.887 9.446,13.249 L9.446,15.077 C9.446,15.203 9.367,15.284 9.215,15.284 L9.214,15.284 C6.983,14.758 5.388,12.79 5.333,10.512 C5.339,10.354 5.482,10.221 5.646,10.221 L7.312,10.218 C7.579,10.257 7.812,10.519 7.812,10.785 L7.812,10.785 Z M10.372,10.218 L10.375,10.218 L10.378,10.218 C10.669,10.218 10.945,10.494 10.944,10.79 C10.944,11.082 10.669,11.357 10.372,11.357 C10.081,11.357 9.806,11.082 9.806,10.785 C9.806,10.494 10.081,10.218 10.372,10.218 L10.372,10.218 Z M11.506,15.285 C11.383,15.285 11.304,15.203 11.304,15.077 L11.304,13.249 C11.304,12.887 11.611,12.631 11.851,12.491 C11.904,12.464 12.022,12.397 12.029,12.393 C12.589,12.047 12.938,11.43 12.938,10.779 C12.938,10.505 13.188,10.238 13.466,10.215 L15.105,10.215 C15.27,10.215 15.413,10.35 15.417,10.497 C15.362,12.79 13.767,14.758 11.506,15.285 L11.506,15.285 Z M10.375,5.33 C12.515,5.33 14.428,6.687 15.129,8.682 C15.146,8.754 15.142,8.815 15.114,8.849 C15.082,8.89 15.015,8.896 14.978,8.896 L5.772,8.901 C5.735,8.901 5.667,8.895 5.634,8.853 C5.608,8.819 5.603,8.759 5.62,8.689 C6.333,6.679 8.241,5.33 10.375,5.33 L10.375,5.33 Z" id="Imported-Layers" fill="#515151" sketch:type="MSShapeGroup"></path>
            </g>
        </g>
    </g>
</svg>