<?xml version="1.0" encoding="UTF-8" standalone="no"?>
<svg width="20px" height="20px" viewBox="0 0 20 20" version="1.1" xmlns="http://www.w3.org/2000/svg" xmlns:xlink="http://www.w3.org/1999/xlink" xmlns:sketch="http://www.bohemiancoding.com/sketch/ns">
    <!-- Generator: Sketch 3.3.2 (12043) - http://www.bohemiancoding.com/sketch -->
    <title>edit</title>
    <desc>Created with Sketch.</desc>
    <defs></defs>
    <g id="Page-1" stroke="none" stroke-width="1" fill="none" fill-rule="evenodd" sketch:type="MSPage">
        <g id="Desktop-HD-Copy-29" sketch:type="MSArtboardGroup" transform="translate(-1044.000000, -134.000000)">
            <g id="edit" sketch:type="MSLayerGroup" transform="translate(1034.000000, 124.000000)">
                <rect id="Rectangle-1344" sketch:type="MSShapeGroup" x="0" y="0" width="40" height="40"></rect>
                <path d="M29.4571257,10.5515933 C30.1895635,11.2840311 30.1883525,12.4712054 29.4571257,13.2036431 L28.5733174,14.0874514 L25.9206817,11.4354016 L26.8044899,10.5515933 C27.5368887,9.81978057 28.7246879,9.81915556 29.4571257,10.5515933 L29.4571257,10.5515933 Z M16.1987517,21.1585425 L15.3155685,24.6937756 L18.8508015,23.8099673 L27.6895092,14.9712597 L25.0368734,12.3192099 L16.1987517,21.1585425 L16.1987517,21.1585425 Z M25.0063259,19.4226454 L25.0063259,27.5026647 L12.5060543,27.5026647 L12.5060543,15.0023932 L20.5866595,15.0023932 L23.0860888,12.5023388 L10.006,12.5023388 L10.006,30.002719 L27.5063802,30.002719 L27.5063802,16.9219661 L25.0063259,19.4226454 L25.0063259,19.4226454 Z" id="Shape" fill="#D8D8D8" sketch:type="MSShapeGroup"></path>
            </g>
        </g>
    </g>
</svg>