<?xml version="1.0" encoding="UTF-8" standalone="no"?>
<svg width="19px" height="15px" viewBox="0 0 19 15" version="1.1" xmlns="http://www.w3.org/2000/svg" xmlns:xlink="http://www.w3.org/1999/xlink" xmlns:sketch="http://www.bohemiancoding.com/sketch/ns">
    <!-- Generator: Sketch 3.3.2 (12043) - http://www.bohemiancoding.com/sketch -->
    <title>fahrplan</title>
    <desc>Created with Sketch.</desc>
    <defs></defs>
    <g id="Page-1" stroke="none" stroke-width="1" fill="none" fill-rule="evenodd" sketch:type="MSPage">
        <g id="DienstplanMitarbeiterWoche" sketch:type="MSArtboardGroup" transform="translate(-29.000000, -95.000000)">
            <g id="leftmenuFahrplan" sketch:type="MSLayerGroup">
                <g id="fahrplan" transform="translate(26.000000, 90.000000)" sketch:type="MSShapeGroup">
                    <path d="M20.1506953,10.4509833 C20.970355,11.4399599 21.6666667,13.0545804 21.6666667,14.4444444 L21.6666667,15.2777778 C21.6666667,16.38347 21.1893079,17.0001402 20.5555556,17.3440713 L20.5555556,17.3440713 L20.5555556,18.6111111 C20.5555556,18.8838066 20.2678024,19.1666667 20,19.1666667 L18.0555556,19.1666667 C17.7880389,19.1666667 17.5,18.8838066 17.5,18.6111111 L17.5,17.7777778 L7.5,17.7777778 L7.5,18.6111111 C7.5,18.8838066 7.21193416,19.1666667 6.94444444,19.1666667 L5,19.1666667 C4.73251029,19.1666667 4.44444444,18.8838066 4.44444444,18.6111111 L4.44444444,17.3440713 L4.44444444,17.3440713 C3.81069211,17.0001402 3.33333333,16.38347 3.33333333,15.2777778 L3.33333333,14.4444444 C3.33333333,13.1159848 3.90472757,11.4750913 4.88569264,10.5188124 C4.55999913,10.4276157 4.31781938,10.3441643 4.16666667,10.2777778 C3.43319395,10.1329455 3.64358303,9.5238387 3.61111111,9.44444444 C3.7704231,9.24914349 4.12750547,9.11885327 4.44444444,9.16666667 C4.66770752,9.24089953 5.06533745,9.35334991 5.61838898,9.4789229 C6.19272424,8.25974271 6.98241964,7.14173961 8.05555556,6.11111111 C8.11777655,5.92867864 8.29455379,5.83333333 8.61111111,5.83333333 L16.1111111,5.83333333 C16.4257546,5.83333333 16.6022556,5.92896496 16.6666667,6.11111111 C17.7426784,7.14630893 18.5339942,8.2685194 19.1094149,9.49217561 C19.8611758,9.31816272 20.2745748,9.18082793 20.2777778,9.16666667 C20.6277444,9.09333811 20.9760031,9.26895846 21.1111111,9.72222222 C21.1861164,9.91118066 21.0068859,10.2550926 20.5555556,10.2777778 C20.554162,10.3033691 20.4147929,10.366736 20.1506953,10.4509833 Z M6.9377711,10.9580153 C6.85673067,11.0215383 6.76403364,11.0725878 6.66666667,11.1111111 C5.60517697,10.9792933 4.57658961,12.8850128 4.44444444,14.4444444 L4.44444444,15.2777778 C4.57658961,16.1502635 4.91199253,16.5345569 6.94444444,16.6666667 L18.0555556,16.6666667 C20.0882838,16.5345569 20.4234104,16.1499872 20.5555556,15.2777778 L20.5555556,14.4444444 C20.4234104,13.4300961 19.8794167,12.0175209 19.1666667,11.3888889 C19.0121384,11.2587513 18.8730006,11.1615885 18.7527665,11.101159 C18.6619943,11.0876927 18.5813472,11.0615396 18.5156214,11.0287655 C18.4380874,11.0259924 18.3765735,11.0526374 18.3333333,11.1111111 C18.1590731,11.0795787 18.007344,11.0275121 17.8825864,10.962923 C16.5151389,11.1919183 14.6778341,11.3888889 12.5,11.3888889 C10.2635293,11.3888889 8.36845408,11.1944077 6.9377711,10.9580153 Z M17.8404726,9.75145479 C17.3354623,8.78653594 16.6935759,7.94403271 15.8333333,7.22222222 L8.88888889,7.22222222 C8.03302047,7.93885714 7.39317772,8.7758134 6.88999119,9.73377135 C8.29567932,9.98212551 10.2077178,10.2191412 12.5,10.2777778 C14.6739621,10.2266925 16.5032369,9.99210939 17.8404726,9.75145479 Z M19.1666667,17.7332297 C19.072754,17.7433616 18.9799021,17.7511892 18.8888889,17.7572365 L18.8888889,17.7777778 L19.1666667,17.7777778 L19.1666667,17.7332297 L19.1666667,17.7332297 Z M5.83333333,17.7332297 C5.92724602,17.7433616 6.02009788,17.7511892 6.11111111,17.7572365 L6.11111111,17.7777778 L5.83333333,17.7777778 L5.83333333,17.7332297 L5.83333333,17.7332297 Z M14.7222222,15.5555556 L10.2777778,15.5555556 C10.0069197,15.5555556 9.72222222,15.2444444 9.72222222,15 C9.72222222,14.4777778 10.0069197,14.1666667 10.2777778,14.1666667 L14.7222222,14.1666667 C14.9930803,14.1666667 15.2777778,14.4777778 15.2777778,15 C15.2777778,15.2444444 14.9930803,15.5555556 14.7222222,15.5555556 Z M8.05555556,15.5555556 L6.11111111,15.5555556 C5.83388503,15.5555556 5.55555556,15.2444444 5.55555556,15 C5.55555556,14.4777778 5.83388503,14.1666667 6.11111111,14.1666667 L8.05555556,14.1666667 C8.33305749,14.1666667 8.61111111,14.4777778 8.61111111,15 C8.61111111,15.2444444 8.33305749,15.5555556 8.05555556,15.5555556 Z M18.8888889,15.5555556 L16.9444444,15.5555556 C16.667043,15.5555556 16.3888889,15.2444444 16.3888889,15 C16.3888889,14.4777778 16.667043,14.1666667 16.9444444,14.1666667 L18.8888889,14.1666667 C19.1662904,14.1666667 19.4444444,14.4777778 19.4444444,15 C19.4444444,15.2444444 19.1668423,15.5555556 18.8888889,15.5555556 Z" id="Shape" fill="#FFFFFF"></path>
                    <rect id="Rectangle-731" x="0" y="0" width="25" height="25"></rect>
                </g>
            </g>
        </g>
    </g>
</svg>