<?xml version="1.0" encoding="UTF-8" standalone="no"?>
<svg width="11px" height="15px" viewBox="0 0 11 15" version="1.1" xmlns="http://www.w3.org/2000/svg" xmlns:xlink="http://www.w3.org/1999/xlink" xmlns:sketch="http://www.bohemiancoding.com/sketch/ns">
    <!-- Generator: Sketch 3.3.2 (12043) - http://www.bohemiancoding.com/sketch -->
    <title>Oval 35</title>
    <desc>Created with Sketch.</desc>
    <defs></defs>
    <g id="Page-1" stroke="none" stroke-width="1" fill="none" fill-rule="evenodd" sketch:type="MSPage">
        <g id="passenger" sketch:type="MSLayerGroup" transform="translate(-5.000000, -3.000000)" fill="#497BAF">
            <path d="M16,14.867543 C14.5590848,16.2112032 12.6254953,17.0333581 10.4998812,17.0333581 C8.37438394,17.0333581 6.44089017,16.2112936 5,14.8677646 C6.59178139,13.8714823 8.46514879,13.2644909 10.5001687,13.2644909 C12.5350449,13.2644909 14.4082913,13.8711983 16,14.867543 L16,14.867543 Z M10.5001687,3 C8.60452903,3 7.05370034,4.64606221 7.05370034,6.65807566 L7.05370034,8.54817377 C7.05370034,10.5601872 8.60473427,12.2062494 10.5001687,12.2062494 C12.3956032,12.2062494 13.9464319,10.5601872 13.9464319,8.54817377 L13.9464319,6.65807566 C13.9466372,4.64606221 12.3956032,3 10.5001687,3 Z" id="Oval-35" sketch:type="MSShapeGroup"></path>
        </g>
    </g>
</svg>