<?xml version="1.0" encoding="UTF-8" standalone="no"?>
<svg width="16px" height="16px" viewBox="0 0 16 16" version="1.1" xmlns="http://www.w3.org/2000/svg" xmlns:xlink="http://www.w3.org/1999/xlink" xmlns:sketch="http://www.bohemiancoding.com/sketch/ns">
    <!-- Generator: Sketch 3.3.2 (12043) - http://www.bohemiancoding.com/sketch -->
    <title>stammdaten</title>
    <desc>Created with Sketch.</desc>
    <defs></defs>
    <g id="Page-1" stroke="none" stroke-width="1" fill="none" fill-rule="evenodd" sketch:type="MSPage">
        <g id="DienstplanMitarbeiterWoche" sketch:type="MSArtboardGroup" transform="translate(-31.000000, -197.000000)">
            <g id="leftmenuFahrplan" sketch:type="MSLayerGroup">
                <g id="stammdaten" transform="translate(26.000000, 192.000000)" sketch:type="MSShapeGroup">
                    <g id="Group" transform="translate(5.000000, 5.000000)" fill="#FFFFFF">
                        <path d="M11.9401026,11.8152 L3.84287179,11.8152 C1.72758974,11.8152 0.00656410256,10.1372 0.00656410256,8.0744 L0.00656410256,4.0012 C0.00656410256,1.9388 1.72717949,0.2604 3.84287179,0.2604 L11.9401026,0.2604 C14.0553846,0.2604 15.7768205,1.9384 15.7768205,4.0012 L15.7768205,8.0748 C15.7768205,10.1372 14.0557949,11.8152 11.9401026,11.8152 L11.9401026,11.8152 Z M3.84287179,1.4604 C2.40615385,1.4604 1.23733333,2.6004 1.23733333,4.0012 L1.23733333,8.0748 C1.23733333,9.4756 2.40615385,10.6156 3.84287179,10.6156 L11.9401026,10.6156 C13.3768205,10.6156 14.5460513,9.4756 14.5460513,8.0748 L14.5460513,4.0012 C14.5460513,2.6004 13.3768205,1.4604 11.9401026,1.4604 L3.84287179,1.4604 L3.84287179,1.4604 Z" id="Shape"></path>
                        <path d="M11.9401026,7.8152 L3.84287179,7.8152 C1.72758974,7.8152 0.00656410256,6.1372 0.00656410256,4.0744 C0.00656410256,3.7432 0.28225641,3.4744 0.621948718,3.4744 C0.961641026,3.4744 1.23733333,3.7432 1.23733333,4.0744 C1.23733333,5.4752 2.40615385,6.6152 3.84287179,6.6152 L11.9401026,6.6152 C13.3768205,6.6152 14.5460513,5.4752 14.5460513,4.0744 C14.5460513,3.7432 14.8217436,3.4744 15.1614359,3.4744 C15.5011282,3.4744 15.7768205,3.7432 15.7768205,4.0744 C15.7768205,6.1372 14.0557949,7.8152 11.9401026,7.8152 L11.9401026,7.8152 Z" id="Shape"></path>
                        <path d="M11.9401026,15.8152 L3.84287179,15.8152 C1.72758974,15.8152 0.00656410256,14.1372 0.00656410256,12.0744 L0.00656410256,8.0012 C0.00656410256,7.67 0.28225641,7.4012 0.621948718,7.4012 C0.961641026,7.4012 1.23733333,7.67 1.23733333,8.0012 L1.23733333,12.0748 C1.23733333,13.4756 2.40615385,14.6156 3.84287179,14.6156 L11.9401026,14.6156 C13.3768205,14.6156 14.5460513,13.4756 14.5460513,12.0748 L14.5460513,8.0012 C14.5460513,7.67 14.8217436,7.4012 15.1614359,7.4012 C15.5011282,7.4012 15.7768205,7.67 15.7768205,8.0012 L15.7768205,12.0748 C15.7768205,14.1372 14.0557949,15.8152 11.9401026,15.8152 L11.9401026,15.8152 Z" id="Shape"></path>
                        <path d="M11.8441026,13.6 C11.68,13.6 11.5241026,13.536 11.4088205,13.424 C11.294359,13.3124 11.2287179,13.16 11.2287179,13 C11.2287179,12.84 11.294359,12.688 11.4088205,12.5756 C11.6344615,12.3516 12.0492308,12.3516 12.2785641,12.5756 C12.3934359,12.6876 12.4590769,12.8436 12.4590769,13 C12.4590769,13.1596 12.3934359,13.312 12.2785641,13.424 C12.1636923,13.536 12.0041026,13.6 11.8441026,13.6 L11.8441026,13.6 Z" id="Shape"></path>
                        <path d="M11.8441026,9.6 C11.68,9.6 11.5241026,9.536 11.4088205,9.424 C11.294359,9.3124 11.2287179,9.156 11.2287179,9 C11.2287179,8.84 11.294359,8.688 11.4088205,8.5756 C11.6389744,8.3516 12.0492308,8.3516 12.2785641,8.5756 C12.3934359,8.6876 12.4590769,8.8396 12.4590769,9 C12.4590769,9.156 12.3934359,9.312 12.2785641,9.424 C12.1636923,9.536 12.0082051,9.6 11.8441026,9.6 L11.8441026,9.6 Z" id="Shape"></path>
                    </g>
                    <rect id="Rectangle-733" x="0" y="0" width="25" height="25"></rect>
                </g>
            </g>
        </g>
    </g>
</svg>