<?xml version="1.0" encoding="UTF-8" standalone="no"?>
<svg width="29px" height="19px" viewBox="0 0 29 19" version="1.1" xmlns="http://www.w3.org/2000/svg" xmlns:xlink="http://www.w3.org/1999/xlink" xmlns:sketch="http://www.bohemiancoding.com/sketch/ns">
    <!-- Generator: Sketch 3.3.2 (12043) - http://www.bohemiancoding.com/sketch -->
    <title>activity</title>
    <desc>Created with Sketch.</desc>
    <defs></defs>
    <g id="Page-1" stroke="none" stroke-width="1" fill="none" fill-rule="evenodd" sketch:type="MSPage">
        <g id="DienstplanMitarbeiterWoche" sketch:type="MSArtboardGroup" transform="translate(-1229.000000, -19.000000)">
            <g id="NavBar" sketch:type="MSLayerGroup" transform="translate(0.000000, -1.000000)">
                <g id="activity" transform="translate(1223.000000, 10.000000)" sketch:type="MSShapeGroup">
                    <g id="noun_64505_cc" transform="translate(6.000000, 10.000000)" stroke="#FFFFFF" stroke-width="0.7" fill="#C4C5BE">
                        <path d="M18.9238594,18.8830781 C18.2351094,18.8830781 17.6120625,18.4625781 17.3569531,17.8173281 L14.1533594,9.71046875 L11.5823281,16.1688594 C11.3525938,16.7456875 10.8233438,17.149875 10.2061875,17.2196562 C9.58585938,17.2944219 8.98320313,17.0139375 8.63021875,16.5037187 L5.72342188,12.3018906 L3.106625,15.4547344 C2.51257813,16.1715781 1.44909375,16.2694531 0.73315625,15.6754062 C0.01721875,15.0804531 -0.0815625,14.017875 0.512484375,13.3019375 L4.54892188,8.439 C4.88559375,8.03345312 5.39082813,7.7991875 5.92007813,7.8318125 C6.44660938,7.85492187 6.93235938,8.12317187 7.231875,8.5568125 L9.6135,12.0001094 L12.5927969,4.51629687 C12.8479063,3.875125 13.4682344,3.45417187 14.1587969,3.45417187 L14.1610625,3.45417187 C14.851625,3.45507812 15.4719531,3.87739062 15.7261563,4.51992187 L18.7190469,12.0939062 L21.9983125,1.34215625 C22.1999531,0.68059375 22.7858438,0.20934375 23.4755,0.153609375 C24.1560938,0.097421875 24.8185625,0.4694375 25.1239688,1.09157812 L28.7022969,8.38507812 C29.1119219,9.2201875 28.7670938,10.2302031 27.9310781,10.6407344 C27.09325,11.0499062 26.0850469,10.7041719 25.6754219,9.86951562 L23.9775625,6.40764062 L20.5369844,17.69 C20.3280938,18.3746719 19.7082188,18.8527187 18.9922813,18.8817187 C18.9700781,18.882625 18.9469688,18.8830781 18.9238594,18.8830781 L18.9238594,18.8830781 Z" id="Shape"></path>
                    </g>
                    <rect id="Rectangle-744" x="0" y="0" width="40" height="40"></rect>
                </g>
            </g>
        </g>
    </g>
</svg>