<?xml version="1.0" encoding="UTF-8" standalone="no"?>
<svg width="15px" height="11px" viewBox="0 0 15 11" version="1.1" xmlns="http://www.w3.org/2000/svg" xmlns:xlink="http://www.w3.org/1999/xlink" xmlns:sketch="http://www.bohemiancoding.com/sketch/ns">
    <!-- Generator: Sketch 3.3.2 (12043) - http://www.bohemiancoding.com/sketch -->
    <title>Shape Copy 2</title>
    <desc>Created with Sketch.</desc>
    <defs></defs>
    <g id="Page-1" stroke="none" stroke-width="1" fill="none" fill-rule="evenodd" sketch:type="MSPage">
        <g id="Shape-Copy-2" sketch:type="MSLayerGroup" stroke="#515151" stroke-width="0.5" fill="#515151">
            <path d="M13.2063034,4.10975441 C13.8174715,4.84717136 14.3366667,6.05109111 14.3366667,7.08742428 L14.3366667,7.70878792 C14.3366667,8.53323229 13.9807307,8.99304395 13.5081819,9.24949153 L13.5081819,9.24949153 L13.5081819,10.1942425 C13.5081819,10.3975742 13.2936227,10.6084849 13.0939395,10.6084849 L11.644091,10.6084849 C11.4446208,10.6084849 11.2298485,10.3975742 11.2298485,10.1942425 L11.2298485,9.57287884 L3.77348487,9.57287884 L3.77348487,10.1942425 C3.77348487,10.3975742 3.5586925,10.6084849 3.35924244,10.6084849 L1.90939395,10.6084849 C1.70994389,10.6084849 1.49515152,10.3975742 1.49515152,10.1942425 L1.49515152,9.24949153 L1.49515152,9.24949153 C1.02260273,8.99304395 0.666666667,8.53323229 0.666666667,7.70878792 L0.666666667,7.08742428 C0.666666667,6.09687643 1.09271899,4.87336655 1.82416222,4.16033026 C1.5813133,4.0923307 1.40073527,4.03010626 1.28803031,3.98060608 C0.741126374,3.87261384 0.89800012,3.41844168 0.87378788,3.35924244 C0.992576691,3.21361895 1.2588303,3.11646982 1.49515152,3.15212123 C1.66162459,3.20747195 1.95811193,3.29131904 2.37048726,3.38495083 C2.79873252,2.47588574 3.38755813,1.64226197 4.18772729,0.87378788 C4.23412153,0.737759593 4.36593307,0.666666667 4.60196972,0.666666667 L10.1942425,0.666666667 C10.4288521,0.666666667 10.5604577,0.737973086 10.6084849,0.87378788 C11.4107984,1.64566902 12.0008322,2.48242996 12.4298868,3.39483253 C12.9904271,3.26508219 13.2986724,3.16268038 13.3010607,3.15212123 C13.5620085,3.09744478 13.8216829,3.22839371 13.9224243,3.56636365 C13.978351,3.70725794 13.8447102,3.96369115 13.5081819,3.98060608 C13.5071428,3.9996879 13.4032242,4.04693656 13.2063034,4.10975441 Z M3.35426655,4.48781591 C3.29383986,4.535181 3.22472158,4.57324536 3.15212123,4.60196972 C2.3606359,4.50368153 1.59368376,5.92465532 1.49515152,7.08742428 L1.49515152,7.70878792 C1.59368376,8.35934497 1.84377237,8.64588811 3.35924244,8.74439398 L11.644091,8.74439398 C13.159767,8.64588811 13.4096496,8.35913898 13.5081819,7.70878792 L13.5081819,7.08742428 C13.4096496,6.33108926 13.0040282,5.27782179 12.4725758,4.80909093 C12.3573539,4.7120556 12.2536077,4.63960752 12.1639568,4.59454908 C12.0962737,4.58450813 12.0361404,4.56500743 11.9871328,4.54056983 C11.9293206,4.53850214 11.8834536,4.55836957 11.8512122,4.60196972 C11.7212775,4.57845798 11.6081427,4.53963528 11.5151189,4.49147525 C10.4955003,4.66222252 9.12553904,4.80909093 7.5016667,4.80909093 C5.8340728,4.80909093 4.42103581,4.66407867 3.35426655,4.48781591 Z M11.4837173,3.58816052 C11.1071633,2.86868193 10.6285494,2.24048088 9.98712126,1.70227273 L4.80909093,1.70227273 C4.17092431,2.23662179 3.69383429,2.86068682 3.31864011,3.5749751 C4.3667723,3.760157 5.7924577,3.93688452 7.5016667,3.98060608 C9.12265191,3.94251502 10.4866257,3.76760134 11.4837173,3.58816052 Z M12.4725758,9.53966216 C12.4025511,9.54721691 12.3333174,9.55305342 12.2654546,9.55756248 L12.2654546,9.57287884 L12.4725758,9.57287884 L12.4725758,9.53966216 L12.4725758,9.53966216 Z M2.53075759,9.53966216 C2.6007823,9.54721691 2.67001602,9.55305342 2.7378788,9.55756248 L2.7378788,9.57287884 L2.53075759,9.57287884 L2.53075759,9.53966216 L2.53075759,9.53966216 Z M9.15863641,7.91590913 L5.844697,7.91590913 C5.64273539,7.91590913 5.43045457,7.68393337 5.43045457,7.5016667 C5.43045457,7.11227882 5.64273539,6.88030306 5.844697,6.88030306 L9.15863641,6.88030306 C9.36059802,6.88030306 9.57287884,7.11227882 9.57287884,7.5016667 C9.57287884,7.68393337 9.36059802,7.91590913 9.15863641,7.91590913 Z M4.18772729,7.91590913 L2.7378788,7.91590913 C2.53116895,7.91590913 2.32363637,7.68393337 2.32363637,7.5016667 C2.32363637,7.11227882 2.53116895,6.88030306 2.7378788,6.88030306 L4.18772729,6.88030306 C4.39464282,6.88030306 4.60196972,7.11227882 4.60196972,7.5016667 C4.60196972,7.68393337 4.39464282,7.91590913 4.18772729,7.91590913 Z M12.2654546,7.91590913 L10.8156061,7.91590913 C10.6087655,7.91590913 10.4013637,7.68393337 10.4013637,7.5016667 C10.4013637,7.11227882 10.6087655,6.88030306 10.8156061,6.88030306 L12.2654546,6.88030306 C12.4722952,6.88030306 12.679697,7.11227882 12.679697,7.5016667 C12.679697,7.68393337 12.4727068,7.91590913 12.2654546,7.91590913 Z" id="Shape-Copy" sketch:type="MSShapeGroup"></path>
        </g>
    </g>
</svg>