<?xml version="1.0" encoding="UTF-8" standalone="no"?>
<svg width="19px" height="19px" viewBox="0 0 19 19" version="1.1" xmlns="http://www.w3.org/2000/svg" xmlns:xlink="http://www.w3.org/1999/xlink" xmlns:sketch="http://www.bohemiancoding.com/sketch/ns">
    <!-- Generator: Sketch 3.3.2 (12043) - http://www.bohemiancoding.com/sketch -->
    <title>noun_110872_cc</title>
    <desc>Created with Sketch.</desc>
    <defs></defs>
    <g id="Page-1" stroke="none" stroke-width="1" fill="none" fill-rule="evenodd" sketch:type="MSPage">
        <g id="DienstplanMitarbeiterWoche" sketch:type="MSArtboardGroup" transform="translate(-29.000000, -784.000000)" fill="#FFFFFF">
            <g id="leftmenuFahrplan" sketch:type="MSLayerGroup">
                <g id="setting-" transform="translate(26.000000, 781.000000)" sketch:type="MSShapeGroup">
                    <g id="noun_110872_cc" transform="translate(3.000000, 3.000000)">
                        <path d="M10.6867208,19 L8.27687834,19 C7.98938308,19 7.73450072,18.814568 7.64519155,18.5411939 C7.48262878,18.0462059 6.98942138,16.95874 6.46360108,16.61853 C6.38081448,16.6044593 6.28749142,16.5974239 6.18563882,16.5974239 C5.49775749,16.5974239 4.63025434,16.9225581 4.35379729,17.0476871 C4.10092188,17.1617604 3.80539883,17.1074876 3.61022316,16.9115026 L1.90933497,15.2044222 C1.7086402,15.0029094 1.65796477,14.6953635 1.78440247,14.4400804 C2.03777962,13.9229813 2.37795726,12.916422 2.26406298,12.3214314 C1.92288187,11.8199106 0.98413207,11.3485414 0.447273556,11.1616017 C0.173826929,11.0666243 -0.00730010237,10.8048084 0.000225951571,10.5153535 L0.0318353781,9.30828639 L0.0308319043,8.11981274 C0.0308319043,7.83638816 0.209951988,7.58361766 0.477879509,7.4911529 C1.00721197,7.30572086 1.93592703,6.83686424 2.27710814,6.33634849 C2.38849374,5.74387051 2.04681089,4.74886932 1.79192853,4.23780052 C1.66147693,3.97598455 1.71666799,3.65889074 1.92890271,3.45737787 L2.80142323,2.62770769 L3.64283606,1.79250972 C3.84453431,1.59250443 4.15109557,1.54275437 4.40547619,1.66888836 C4.68394019,1.80607792 5.55545724,2.1633738 6.2287882,2.1633738 C6.322613,2.1633738 6.40841002,2.15633844 6.48467403,2.14277024 C6.51628346,2.13271972 6.5453842,2.12518184 6.57147452,2.11915152 C7.09829829,1.6950197 7.51674689,0.775397392 7.63866897,0.43870507 C7.73450072,0.175884049 7.98436571,0 8.26333144,0 L10.6731739,0 C10.9531431,0 11.2025064,0.175381523 11.2978364,0.439207596 C11.4182533,0.768864556 11.8281723,1.66939089 12.3454631,2.10156312 C12.3976437,2.10859848 12.4548418,2.11915152 12.5155519,2.13724246 C12.5767638,2.14427782 12.6419896,2.14829802 12.7117311,2.14829802 C13.3845603,2.14829802 14.2314922,1.81210823 14.5014267,1.68245656 C14.7553056,1.55984025 15.0593582,1.61210294 15.2585477,1.81210823 L16.9639515,3.51868603 C17.1631411,3.71818879 17.2153217,4.02171441 17.0939014,4.27649501 C16.9443838,4.59208125 16.5871471,5.5202465 16.6353139,6.19262609 C16.6428399,6.20619429 16.6498642,6.21925996 16.6563868,6.23282816 C16.9499029,6.78711418 18.0562328,7.30974107 18.5484368,7.47657965 C18.8183712,7.56803936 19,7.82181491 19,8.10674707 L19,10.5203787 C19,10.8053109 18.818873,11.0585839 18.5494402,11.1505462 C17.9784636,11.3465312 16.9684672,11.8510672 16.6704354,12.3752017 C16.5951749,12.9782327 16.9092622,13.9194636 17.1410647,14.4018884 C17.2629867,14.655664 17.2123113,14.9596921 17.014627,15.1596974 L15.3127353,16.8868788 C15.1160544,17.0873866 14.8145105,17.1426644 14.5596282,17.0245709 C14.5500952,17.0205507 13.5576595,16.5672723 12.7428388,16.5672723 C12.6866442,16.5672723 12.6329584,16.569785 12.5822829,16.5738052 C12.0775356,16.8205454 11.5441892,17.8567537 11.3174041,18.5427015 C11.2275932,18.815573 10.9732126,19 10.6867208,19 L10.6867208,19 Z M8.73697111,17.6693115 L10.2281333,17.6693115 C10.5236563,16.9577349 11.1814334,15.666746 12.1844055,15.2993996 C12.2275549,15.2833188 12.2727112,15.2722632 12.3183693,15.2657304 C12.4523331,15.2466344 12.5953281,15.2365839 12.7433405,15.2365839 C13.4578139,15.2365839 14.2139314,15.4667407 14.6770346,15.6375995 L15.7567725,14.5420932 C15.5224613,13.9405697 15.189308,12.8536063 15.3980306,11.9576027 C15.4070618,11.9199132 15.4191035,11.8827263 15.4341556,11.847047 C15.4587408,11.7902616 15.496371,11.7314661 15.5400221,11.6787008 C16.0216896,10.8741569 17.0637972,10.3309265 17.6724041,10.0681055 L17.6724041,8.56253802 C17.0341947,8.2881589 15.9218439,7.70673649 15.4737929,6.83786929 C15.4512147,6.80168743 15.431647,6.76751567 15.4155914,6.73434896 C15.3980306,6.70118226 15.3834802,6.66952313 15.3719403,6.63937158 C15.3543795,6.5931392 15.341836,6.54590177 15.33431,6.49715676 C15.210381,5.65492343 15.5003849,4.69660663 15.7106127,4.14533577 L14.6358922,3.06993044 C14.1757994,3.24531196 13.4257027,3.48049406 12.713738,3.48049406 C12.5536839,3.48049406 12.399149,3.46893597 12.2546487,3.44531725 C12.2195271,3.43978947 12.1844055,3.43124653 12.1507892,3.41968843 C12.0619817,3.41064297 11.9551118,3.3975773 11.8336914,3.35033987 C11.7855247,3.33174641 11.7398666,3.30712264 11.697219,3.27797614 C10.9772265,2.7814806 10.4820121,1.87793912 10.2321472,1.33219604 L8.70787036,1.33219604 C8.45599843,1.88296437 7.95476323,2.7970589 7.224736,3.29104182 C7.18509878,3.31767569 7.14295288,3.34028935 7.09829829,3.35787775 C7.00397175,3.39556719 6.92269037,3.40913539 6.87251668,3.41767833 C6.84993851,3.42521622 6.82685862,3.43124653 6.80327698,3.43677431 C6.62616384,3.4754688 6.43299513,3.49456479 6.22979167,3.49456479 C5.50277486,3.49456479 4.73009999,3.24129176 4.25947075,3.05535719 L3.72712786,3.58401439 L3.18424851,4.10010844 C3.43662218,4.72876828 3.79385888,5.86347166 3.53897652,6.77505356 C3.52442614,6.82681372 3.50385493,6.87706631 3.47726287,6.92380121 C3.01064753,7.74794361 1.96853993,8.30373721 1.36043477,8.57108096 L1.36043477,9.32587479 L1.34086703,10.0861964 C1.95549477,10.3560528 2.99960932,10.9128514 3.46371598,11.7344812 C3.4898063,11.7807136 3.51037751,11.8299611 3.52492788,11.8817213 C3.78382414,12.8018461 3.42106834,13.9566505 3.17070161,14.5858129 L4.24190995,15.6612182 C4.70501314,15.4938771 5.46765327,15.2662329 6.18614056,15.2662329 C6.43048644,15.2662329 6.65877674,15.2923643 6.86499062,15.3436219 C6.91566605,15.356185 6.96483627,15.3747785 7.01099607,15.3988997 C7.88351659,15.8541882 8.46452795,17.0105001 8.73697111,17.6693115 L8.73697111,17.6693115 Z M9.50011298,13.5541273 C7.26838711,13.5541273 5.4531029,11.7354863 5.4531029,9.50025126 C5.4531029,7.26501627 7.26838711,5.44687773 9.50011298,5.44687773 C11.7318388,5.44687773 13.5476248,7.26501627 13.5476248,9.50025126 C13.5476248,11.7354863 11.7318388,13.5541273 9.50011298,13.5541273 L9.50011298,13.5541273 Z M9.50011298,6.77756619 C8.00142477,6.77756619 6.78170229,7.99920654 6.78170229,9.50025126 C6.78170229,11.0017985 8.00142477,12.2229363 9.50011298,12.2229363 C10.9993029,12.2229363 12.2185237,11.001296 12.2185237,9.50025126 C12.2190254,7.99920654 10.9993029,6.77756619 9.50011298,6.77756619 L9.50011298,6.77756619 Z" id="Shape"></path>
                    </g>
                </g>
            </g>
        </g>
    </g>
</svg>