<?xml version="1.0" encoding="UTF-8" standalone="no"?>
<svg width="18px" height="26px" viewBox="0 0 18 26" version="1.1" xmlns="http://www.w3.org/2000/svg" xmlns:xlink="http://www.w3.org/1999/xlink" xmlns:sketch="http://www.bohemiancoding.com/sketch/ns">
    <!-- Generator: Sketch 3.3.2 (12043) - http://www.bohemiancoding.com/sketch -->
    <title>locaiton</title>
    <desc>Created with Sketch.</desc>
    <defs></defs>
    <g id="Page-1" stroke="none" stroke-width="1" fill="none" fill-rule="evenodd" sketch:type="MSPage">
        <g id="DienstplanMitarbeiterWoche" sketch:type="MSArtboardGroup" transform="translate(-1154.000000, -17.000000)">
            <g id="NavBar" sketch:type="MSLayerGroup" transform="translate(0.000000, -1.000000)">
                <g id="locaiton" transform="translate(1143.000000, 10.000000)" sketch:type="MSShapeGroup">
                    <g id="noun_6149_cc" transform="translate(11.000000, 8.000000)" stroke-width="0.3" stroke="#FFFFFF" fill="#C4C5BE">
                        <g id="Group">
                            <path d="M9,0.230487805 C4.12293103,0.230487805 0.155172414,4.15953659 0.155172414,8.98902439 C0.155172414,16.6141756 6.87848276,24.0094537 7.16462069,24.3204585 C7.63541379,24.8318341 8.30141379,25.1231707 9,25.1231707 C9.69858621,25.1231707 10.3645862,24.8318341 10.8353793,24.3204585 C11.1215172,24.0094537 17.8448276,16.6141756 17.8448276,8.98902439 C17.8448276,4.15953659 13.877069,0.230487805 9,0.230487805 L9,0.230487805 Z M9,22.6646341 C9,22.6646341 2.63793103,15.75 2.63793103,8.98902439 C2.63793103,5.50958049 5.48627586,2.68902439 9,2.68902439 C12.5137241,2.68902439 15.362069,5.50958049 15.362069,8.98902439 C15.362069,15.75 9,22.6646341 9,22.6646341 L9,22.6646341 Z" id="Shape"></path>
                            <path d="M9,4.07195122 C6.26213793,4.07195122 4.03448276,6.27787317 4.03448276,8.98902439 C4.03448276,11.7001756 6.26213793,13.9060976 9,13.9060976 C11.7378621,13.9060976 13.9655172,11.7001756 13.9655172,8.98902439 C13.9655172,6.27787317 11.7378621,4.07195122 9,4.07195122 L9,4.07195122 Z M9,11.447561 C7.63106897,11.447561 6.51724138,10.3446 6.51724138,8.98902439 C6.51724138,7.63344878 7.63106897,6.5304878 9,6.5304878 C10.368931,6.5304878 11.4827586,7.63344878 11.4827586,8.98902439 C11.4827586,10.3446 10.368931,11.447561 9,11.447561 L9,11.447561 Z" id="Shape"></path>
                        </g>
                    </g>
                    <rect id="Rectangle-745" x="0" y="0" width="40" height="40"></rect>
                </g>
            </g>
        </g>
    </g>
</svg>