<?xml version="1.0" encoding="UTF-8" standalone="no"?>
<svg width="17px" height="16px" viewBox="0 0 17 16" version="1.1" xmlns="http://www.w3.org/2000/svg" xmlns:xlink="http://www.w3.org/1999/xlink" xmlns:sketch="http://www.bohemiancoding.com/sketch/ns">
    <!-- Generator: Sketch 3.3.2 (12043) - http://www.bohemiancoding.com/sketch -->
    <title>statistik</title>
    <desc>Created with Sketch.</desc>
    <defs></defs>
    <g id="Page-1" stroke="none" stroke-width="1" fill="none" fill-rule="evenodd" sketch:type="MSPage">
        <g id="Desktop-HD-Copy-15" sketch:type="MSArtboardGroup" transform="translate(-30.000000, -423.000000)">
            <g id="statistik" sketch:type="MSLayerGroup" transform="translate(27.000000, 419.000000)">
                <g sketch:type="MSShapeGroup">
                    <g id="noun_57122_cc" transform="translate(3.000000, 4.000000)" fill="#FFFFFF">
                        <g id="Group">
                            <path d="M2.4395,15.1555 C1.1655,15.1555 0.1295,14.119 0.1295,12.845 L0.1295,10.38 C0.1295,9.106 1.1655,8.0695 2.4395,8.0695 C3.7135,8.0695 4.75,9.106 4.75,10.38 L4.75,12.845 C4.75,14.119 3.7135,15.1555 2.4395,15.1555 L2.4395,15.1555 Z M2.4395,9.5695 C1.9925,9.5695 1.6295,9.933 1.6295,10.38 L1.6295,12.845 C1.6295,13.292 1.993,13.6555 2.4395,13.6555 C2.886,13.6555 3.25,13.292 3.25,12.845 L3.25,10.38 C3.25,9.933 2.886,9.5695 2.4395,9.5695 L2.4395,9.5695 Z" id="Shape"></path>
                            <path d="M14.4395,15.1555 C13.1655,15.1555 12.1295,14.119 12.1295,12.845 L12.1295,6.38 C12.1295,5.106 13.1655,4.0695 14.4395,4.0695 C15.7135,4.0695 16.75,5.106 16.75,6.38 L16.75,12.845 C16.75,14.119 15.7135,15.1555 14.4395,15.1555 L14.4395,15.1555 Z M14.4395,5.5695 C13.9925,5.5695 13.6295,5.933 13.6295,6.38 L13.6295,12.845 C13.6295,13.292 13.993,13.6555 14.4395,13.6555 C14.886,13.6555 15.25,13.292 15.25,12.845 L15.25,6.38 C15.25,5.933 14.886,5.5695 14.4395,5.5695 L14.4395,5.5695 Z" id="Shape"></path>
                            <path d="M8.4395,15.1555 C7.1655,15.1555 6.1295,14.119 6.1295,12.845 L6.1295,2.38 C6.1295,1.106 7.1655,0.0695 8.4395,0.0695 C9.7135,0.0695 10.75,1.106 10.75,2.38 L10.75,12.845 C10.75,14.119 9.7135,15.1555 8.4395,15.1555 L8.4395,15.1555 Z M8.4395,1.5695 C7.9925,1.5695 7.6295,1.933 7.6295,2.38 L7.6295,12.845 C7.6295,13.292 7.993,13.6555 8.4395,13.6555 C8.886,13.6555 9.25,13.292 9.25,12.845 L9.25,2.38 C9.25,1.933 8.886,1.5695 8.4395,1.5695 L8.4395,1.5695 Z" id="Shape"></path>
                        </g>
                    </g>
                    <rect id="Rectangle-736" x="0" y="0" width="25" height="25"></rect>
                </g>
            </g>
        </g>
    </g>
</svg>